# xmcd
#
# Track frame offsets:
#	150
#	16627
#	36711
#	53063
#	71776
#	87778
#	104035
#	120717
#	139166
#	157515
#	175646
#	189946
#	205673
#	222561
#	237642
#
# Disc length: 3391 seconds
#
# Revision: 1
# Processed by: cddbd v1.5.1PL2 Copyright (c) Steve Scherf et al.
# Submitted via: audiograbber 1.83.01
#
DISCID=d00d3d0f
DTITLE=Chartbuster June 2006 - CB60352-
DYEAR=2006
DGENRE=Karaoke
TTITLE0=Chesney, Kenny - Summertime
TTITLE1=McGraw, Tim - I've Got Friends That Do
TTITLE2=Evans, Sara - Coalmine
TTITLE3=Diamond Rio - God Only Cries
TTITLE4=Johnson, Jamey - Rebelicious
TTITLE5=Roberts, Julie - Men and Mascara
TTITLE6=Lost Trailers, The - Call Me Crazy
TTITLE7=Van Zant - Things I Miss The Most
TTITLE8=Lambert, Miranda - New Strings
TTITLE9=Cross Canadian Ragweed - This Time Around
TTITLE10=Emerson Drive - Good Man, A
TTITLE11=Mullins, Megan - Ain't What It Used To Be
TTITLE12=McComas, Brian - Good Good Lovin'
TTITLE13=McCoy, Neal - Last Of A Dying Breed, The
TTITLE14=Wreckers, The - Leave The Pieces
EXTD=
EXTT0=
EXTT1=
EXTT2=
EXTT3=
EXTT4=
EXTT5=
EXTT6=
EXTT7=
EXTT8=
EXTT9=
EXTT10=
EXTT11=
EXTT12=
EXTT13=
EXTT14=
PLAYORDER=
